<?xml version="1.0" encoding="UTF-8" standalone="no"?>
<!-- Created with Inkscape (http://www.inkscape.org/) -->

<svg
   width="67.900002mm"
   height="68mm"
   viewBox="0 0 67.9 68"
   version="1.1"
   id="svg5"
   inkscape:version="1.1.1 (c3084ef, 2021-09-22)"
   sodipodi:docname="aws68x68.svg"
   xmlns:inkscape="http://www.inkscape.org/namespaces/inkscape"
   xmlns:sodipodi="http://sodipodi.sourceforge.net/DTD/sodipodi-0.dtd"
   xmlns="http://www.w3.org/2000/svg"
   xmlns:svg="http://www.w3.org/2000/svg">
  <sodipodi:namedview
     id="namedview7"
     pagecolor="#ffffff"
     bordercolor="#666666"
     borderopacity="1.0"
     inkscape:pageshadow="2"
     inkscape:pageopacity="0.0"
     inkscape:pagecheckerboard="0"
     inkscape:document-units="mm"
     showgrid="false"
     inkscape:snap-object-midpoints="false"
     inkscape:snap-smooth-nodes="true"
     inkscape:snap-intersection-paths="true"
     inkscape:object-paths="true"
     inkscape:snap-bbox="true"
     inkscape:bbox-nodes="true"
     inkscape:snap-bbox-edge-midpoints="true"
     inkscape:snap-bbox-midpoints="true"
     inkscape:bbox-paths="true"
     inkscape:zoom="0.64052329"
     inkscape:cx="191.24988"
     inkscape:cy="273.99472"
     inkscape:window-width="1312"
     inkscape:window-height="969"
     inkscape:window-x="0"
     inkscape:window-y="0"
     inkscape:window-maximized="0"
     inkscape:current-layer="layer1" />
  <defs
     id="defs2">
    <rect
       x="330.97937"
       y="99.918304"
       width="115.53054"
       height="96.795853"
       id="rect39563" />
    <rect
       x="229.49985"
       y="140.51012"
       width="51.520374"
       height="48.397926"
       id="rect26924" />
    <rect
       x="196.71416"
       y="270.09167"
       width="135.82645"
       height="117.09176"
       id="rect1376" />
  </defs>
  <g
     inkscape:label="Layer 1"
     inkscape:groupmode="layer"
     id="layer1"
     transform="translate(73.136925,-22.989286)"
     style="display:inline">
    <text
       xml:space="preserve"
       transform="scale(0.26458333)"
       id="text1374"
       style="font-style:normal;font-weight:normal;font-size:40px;line-height:1.25;font-family:sans-serif;white-space:pre;shape-inside:url(#rect1376);fill:#000000;fill-opacity:1;stroke:none" />
    <text
       xml:space="preserve"
       transform="scale(0.26458333)"
       id="text26922"
       style="font-style:normal;font-weight:normal;font-size:40px;line-height:1.25;font-family:sans-serif;white-space:pre;shape-inside:url(#rect26924);fill:#000000;fill-opacity:1;stroke:none" />
    <text
       xml:space="preserve"
       style="font-style:normal;font-weight:normal;font-size:10.5833px;line-height:1.25;font-family:sans-serif;fill:#000000;fill-opacity:1;stroke:none;stroke-width:0.264583"
       x="68.157158"
       y="44.198883"
       id="text27480"><tspan
         sodipodi:role="line"
         id="tspan29598"
         x="68.157158"
         y="44.198883" /></text>
    <ellipse
       id="path43090"
       style="fill:#ff7f2a;stroke:#000000;stroke-width:0.174082"
       cx="-5.3589931"
       cy="40.501606"
       rx="0.035027146"
       ry="0.037414294" />
    <ellipse
       id="path43092"
       style="fill:#ff7f2a;stroke:#000000;stroke-width:0.174082"
       cx="-5.3589931"
       cy="40.501606"
       rx="0.035027146"
       ry="0.037414294" />
    <rect
       style="fill:none;stroke-width:0.306228"
       id="rect44429"
       width="100"
       height="100"
       x="62.648235"
       y="37.033794" />
    <rect
       style="fill:#20b2aa;fill-opacity:1;stroke-width:1.97384;stroke-miterlimit:4;stroke-dasharray:none"
       id="rect46544"
       width="66.291077"
       height="68"
       x="-73.136925"
       y="22.989286" />
  </g>
  <g
     inkscape:groupmode="layer"
     id="layer2"
     inkscape:label="Layer 2"
     transform="translate(135.78516,14.044508)">
    <text
       xml:space="preserve"
       style="font-style:normal;font-weight:normal;font-size:6.96328px;line-height:0;font-family:sans-serif;display:inline;fill:#fffff0;fill-opacity:1;fill-rule:nonzero;stroke:none;stroke-width:0.174082"
       x="-134.15823"
       y="16.102304"
       id="text2108-7"
       transform="scale(0.9675727,1.0335141)"><tspan
         style="font-style:normal;font-variant:normal;font-weight:bold;font-stretch:normal;font-size:16.7119px;line-height:1.35;font-family:Arial;-inkscape-font-specification:'Arial Bold';fill:#fffff0;fill-opacity:1;fill-rule:nonzero;stroke-width:0.174082"
         sodipodi:role="line"
         id="tspan23578-0"
         x="-134.15823"
         y="16.102304">aws</tspan><tspan
         sodipodi:role="line"
         style="font-style:normal;font-variant:normal;font-weight:bold;font-stretch:normal;font-size:9.28436px;line-height:1.25;font-family:sans-serif;-inkscape-font-specification:'sans-serif Bold';fill:#fffff0;fill-opacity:1;fill-rule:nonzero;stroke-width:0.174082"
         x="-134.15823"
         y="31.24486"
         id="tspan2110-9">CERTIFIED</tspan></text>
    <path
       sodipodi:type="star"
       style="display:inline;fill:#ffffff;fill-opacity:1"
       id="path13876-2"
       inkscape:flatsided="false"
       sodipodi:sides="6"
       sodipodi:cx="149.87746"
       sodipodi:cy="70.255058"
       sodipodi:r1="137.89235"
       sodipodi:r2="138.52074"
       sodipodi:arg1="1.036202"
       sodipodi:arg2="2.0921097"
       inkscape:rounded="0"
       inkscape:randomized="0"
       transform="matrix(0.05408931,-0.0318926,0.03087569,0.05587077,-97.24482,12.317706)"
       d="m 220.13251,188.90803 -139.241079,1.46748 1.357062,0.0487 -70.891411,-119.852566 0.636361,1.199596 68.349664,-121.320048 -0.7207,1.150904 139.241073,-1.467479 -1.35706,-0.04869 70.89141,119.852569 -0.63636,-1.199597 -68.34966,121.320044 z" />
    <path
       style="display:inline;fill:#20b2aa;fill-opacity:1;stroke-width:0.150375"
       id="path44111-4"
       d="m -91.339601,11.747172 c 0.58278,0.685025 1.107834,1.441076 1.596671,2.220064 0.213431,0.272775 0.362405,1.091944 0.614002,1.25798 0.292357,0.192936 0.616687,0.310025 0.925031,0.465038 0.186338,-0.04298 0.378989,-0.058 0.559004,-0.128962 0.97241,-0.38301 1.754204,-1.343762 2.471438,-2.154043 0.770538,-0.975732 1.570552,-1.918627 2.370304,-2.861249 0.404358,-0.475116 0.203016,-0.249608 0.602568,-0.6783208 1.092741,-1.1782768 -0.32888,-2.9896608 -1.421622,-1.811384 v 0 c -0.464881,0.5032748 -0.241983,0.2514232 -0.669839,0.754154 -0.789688,0.9307772 -1.581362,1.8601808 -2.339912,2.8261548 -0.360122,0.408354 -0.717045,0.847681 -1.124019,1.194209 -0.111987,0.09535 -0.235337,0.170898 -0.351169,0.259699 -0.04481,0.03434 -0.116584,0.0491 -0.130607,0.109657 -0.0089,0.03828 0.06552,0.01999 0.09828,0.02999 0.216182,0.151694 0.435177,0.298017 0.648551,0.455083 0.0065,0.0048 0.01305,0.02706 0.0051,0.02625 -0.05251,-0.0054 -0.417835,-1.178345 -0.569305,-1.208054 -0.554141,-0.874045 -1.141525,-1.727275 -1.799994,-2.496688 -1.049904,-1.23063 -2.534691,0.509742 -1.484788,1.740378 z" />
  </g>
</svg>
