<?xml version="1.0" encoding="UTF-8" standalone="no"?>
<!-- Created with Inkscape (http://www.inkscape.org/) -->

<svg
   width="104.13074mm"
   height="100mm"
   viewBox="0 0 104.13074 100"
   version="1.1"
   id="svg1085"
   inkscape:version="1.1.1 (c3084ef, 2021-09-22)"
   sodipodi:docname="azure.svg"
   xmlns:inkscape="http://www.inkscape.org/namespaces/inkscape"
   xmlns:sodipodi="http://sodipodi.sourceforge.net/DTD/sodipodi-0.dtd"
   xmlns="http://www.w3.org/2000/svg"
   xmlns:svg="http://www.w3.org/2000/svg">
  <sodipodi:namedview
     id="namedview1087"
     pagecolor="#ffffff"
     bordercolor="#666666"
     borderopacity="1.0"
     inkscape:pageshadow="2"
     inkscape:pageopacity="0.0"
     inkscape:pagecheckerboard="0"
     inkscape:document-units="mm"
     showgrid="false"
     inkscape:zoom="0.64052329"
     inkscape:cx="292.7294"
     inkscape:cy="247.45392"
     inkscape:window-width="1312"
     inkscape:window-height="969"
     inkscape:window-x="51"
     inkscape:window-y="66"
     inkscape:window-maximized="0"
     inkscape:current-layer="layer2" />
  <defs
     id="defs1082">
    <path
       id="MyPath2"
       stroke="#add8e6"
       fill="none"
       d="m 100,150 a 50,50 0 0 1 0,-100 50,50 0 0 1 0,100 z" />
    <path
       id="MyPath2-3"
       stroke="#add8e6"
       fill="none"
       d="m 100,150 a 50,50 0 0 1 0,-100 50,50 0 0 1 0,100 z" />
    <path
       id="MyPath2-3-1"
       stroke="#add8e6"
       fill="none"
       d="m 100,150 a 50,50 0 0 1 0,-100 50,50 0 0 1 0,100 z" />
  </defs>
  <g
     inkscape:label="Layer 1"
     inkscape:groupmode="layer"
     id="layer1"
     transform="translate(127.65785,-11.134908)">
    <rect
       style="display:inline;fill:#20b2aa;fill-opacity:1;stroke-width:2.99999;stroke-miterlimit:4;stroke-dasharray:none"
       id="rect46544"
       width="104.13074"
       height="100"
       x="-127.24478"
       y="11.961055" />
  </g>
  <g
     inkscape:groupmode="layer"
     id="layer2"
     inkscape:label="Layer 2"
     transform="translate(127.65785,-11.134908)">
    <ellipse
       style="fill:#20b2aa;fill-opacity:1;stroke-width:0.246383"
       id="path5571-7"
       cx="-76.276878"
       cy="61.780159"
       rx="32.967316"
       ry="31.934631" />
    <path
       class="cls-2"
       d="m -100.59429,43.555046 h -1.80383 V 32.789007 q 0,-1.275042 0.15075,-3.107096 h -0.042 a 9.8686738,10.261246 0 0 1 -0.46037,1.553547 l -5.23987,12.319588 h -0.87887 l -5.25241,-12.228202 a 8.9270064,9.2821191 0 0 1 -0.4562,-1.644933 h -0.042 q 0.0837,0.957368 0.0837,3.128853 v 10.744282 h -1.74102 V 27.523481 h 2.38138 l 4.7167,11.179449 a 14.049677,14.608567 0 0 1 0.69474,1.923439 h 0.0753 q 0.53151,-1.540492 0.74078,-1.966956 l 4.80876,-11.135932 h 2.26421 v 16.031565"
       id="path1025"
       style="fill:#ffffff;stroke-width:0.426761" />
    <path
       class="cls-2"
       d="m -95.592993,43.555046 h -1.75778 V 32.110145 h 1.75778 v 11.444901 m 0.301333,-15.548528 a 1.0923341,1.1357867 0 0 1 -0.343188,0.870333 1.134186,1.1793035 0 0 1 -0.837028,0.343782 1.1467416,1.1923585 0 0 1 -0.837042,-0.330727 1.1592971,1.2054135 0 1 1 1.975403,-0.870335"
       id="path1027"
       style="fill:#ffffff;stroke-width:0.426761" />
    <path
       class="cls-2"
       d="m -85.188612,43.028492 a 5.6667448,5.8921657 0 0 1 -3.021706,0.796358 5.2942631,5.5048666 0 0 1 -2.695261,-0.718028 4.8045961,4.9957209 0 0 1 -1.858223,-2.040935 6.0392267,6.2794647 0 0 1 -0.665443,-2.963488 q 0,-2.837291 1.561072,-4.560554 a 5.4407446,5.6571753 0 0 1 4.151707,-1.74067 5.5495597,5.7703188 0 0 1 2.540411,0.583125 v 1.879923 a 4.4948922,4.6736972 0 0 0 -2.615744,-0.883389 3.5030026,3.6423506 0 0 0 -2.762224,1.305502 4.603707,4.7868406 0 0 0 -1.067222,3.281161 4.3777068,4.5518503 0 0 0 1.012814,3.163667 3.4946321,3.6336471 0 0 0 2.720373,1.161896 4.4530402,4.6301804 0 0 0 2.699446,-0.983478 v 1.740668"
       id="path1029"
       style="fill:#ffffff;stroke-width:0.426761" />
    <path
       class="cls-2"
       d="m -77.358125,33.963958 a 2.3437053,2.436937 0 0 0 -3.23515,0.778949 5.093374,5.2959863 0 0 0 -0.728223,2.989599 v 5.82254 h -1.757779 V 32.110145 h 1.757779 v 2.358606 h 0.04186 a 3.9089658,4.0644629 0 0 1 1.125814,-1.87557 2.5864463,2.6893341 0 0 1 1.745223,-0.687565 2.8626688,2.9765446 0 0 1 1.050483,0.156659 v 1.901683"
       id="path1031"
       style="fill:#ffffff;stroke-width:0.426761" />
    <path
       class="cls-2"
       d="m -68.121414,37.854355 c 0,-1.436053 -0.305519,-2.541379 -0.916556,-3.307273 a 3.2058542,3.3333817 0 0 0 -2.607373,-1.166248 3.3481505,3.4813386 0 0 0 -2.682704,1.179303 c -0.657076,0.787654 -0.983521,1.892978 -0.983521,3.324678 0,1.4317 0.330631,2.445641 0.991889,3.215887 a 3.3941876,3.529207 0 0 0 2.674336,1.157545 3.2267802,3.3551401 0 0 0 2.624113,-1.14014 q 0.899816,-1.127082 0.899816,-3.263752 m 1.799631,-0.06528 a 5.9597079,6.1967827 0 0 1 -1.485742,4.386487 5.1728927,5.3786683 0 0 1 -3.967559,1.649285 5.047337,5.2481181 0 0 1 -3.879668,-1.605769 5.7295227,5.9574408 0 0 1 -1.452261,-4.251584 q 0,-2.837291 1.489926,-4.490928 1.489928,-1.653634 4.101485,-1.649284 2.44415,0 3.825262,1.592713 1.381111,1.592712 1.385297,4.351674"
       id="path1033"
       style="fill:#ffffff;stroke-width:0.426761" />
    <path
       class="cls-2"
       d="m -58.148111,40.491467 a 2.8501132,2.9634896 0 0 1 -1.096519,2.41518 4.4990773,4.6780488 0 0 1 -2.929631,0.926905 5.403078,5.6180102 0 0 1 -2.720373,-0.691915 V 41.17468 a 4.4070033,4.582312 0 0 0 2.850112,1.096621 q 2.092594,0 2.092594,-1.601414 a 1.3350751,1.3881838 0 0 0 -0.418517,-1.053105 7.7216721,8.0288372 0 0 0 -1.854039,-1.100975 5.5621152,5.7833739 0 0 1 -2.059113,-1.392534 3.0761134,3.1984799 0 0 1 0.493852,-4.351674 4.1851882,4.3516733 0 0 1 2.78315,-0.944314 5.2021889,5.4091299 0 0 1 2.347892,0.539609 v 1.845109 a 4.1014843,4.2646398 0 0 0 -2.477633,-0.831169 2.1386312,2.223705 0 0 0 -1.397852,0.435166 1.3476306,1.4012388 0 0 0 -0.53152,1.148842 1.489927,1.5491957 0 0 0 0.418519,1.170599 6.1773379,6.4230699 0 0 0 1.674077,0.966073 6.0141156,6.2533546 0 0 1 2.193037,1.501327 2.6994464,2.8068294 0 0 1 0.631964,1.910385"
       id="path1035"
       style="fill:#ffffff;stroke-width:0.426761" />
    <path
       class="cls-2"
       d="m -47.957178,37.854355 c 0,-1.436053 -0.305518,-2.541379 -0.916555,-3.307273 a 3.2058542,3.3333817 0 0 0 -2.619928,-1.166248 3.3481505,3.4813386 0 0 0 -2.678521,1.179303 c -0.657075,0.787654 -0.987705,1.892978 -0.987705,3.324678 0,1.4317 0.33063,2.445641 0.991891,3.215887 a 3.4067432,3.542262 0 0 0 2.674335,1.157545 3.2267802,3.3551401 0 0 0 2.624114,-1.127083 q 0.908186,-1.140139 0.912369,-3.276809 m 1.799632,-0.06528 c 0,1.814648 -0.493853,3.281161 -1.481557,4.386487 a 5.1854483,5.3917233 0 0 1 -3.984299,1.649285 5.0557073,5.2568213 0 0 1 -3.883855,-1.614472 5.7462634,5.9748474 0 0 1 -1.45226,-4.251584 q 0,-2.837292 1.489928,-4.490926 1.489925,-1.653637 4.088928,-1.640583 2.444149,0 3.825261,1.592713 1.381113,1.592712 1.381113,4.351674"
       id="path1037"
       style="fill:#ffffff;stroke-width:0.426761" />
    <path
       class="cls-2"
       d="m -38.954838,28.219749 a 2.3185941,2.410827 0 0 0 -1.171852,-0.304618 q -1.837298,0 -1.841482,2.428234 v 1.76678 h 2.573889 v 1.553547 h -2.573889 v 9.891354 h -1.75778 v -9.891354 h -1.866595 v -1.553547 h 1.866595 V 30.25198 a 3.7666695,3.9165061 0 0 1 0.987703,-2.815532 3.3062987,3.4378219 0 0 1 2.511113,-1.074863 3.5322989,3.6728123 0 0 1 1.276484,0.200176 v 1.657988"
       id="path1039"
       style="fill:#ffffff;stroke-width:0.426761" />
    <path
       class="cls-2"
       d="m -32.572424,43.441901 a 3.3481505,3.4813386 0 0 1 -1.648966,0.382949 q -2.875223,0 -2.871038,-3.376899 v -6.784259 h -1.887521 v -1.553547 h 1.887521 v -2.798126 l 1.753593,-0.591829 v 3.389955 h 2.766411 v 1.553547 h -2.766411 v 6.457884 a 2.5529648,2.6545207 0 0 0 0.376668,1.64058 1.5275937,1.5883608 0 0 0 1.255556,0.487387 1.8749642,1.9495496 0 0 0 1.134187,-0.369892 v 1.56225"
       id="path1041"
       style="fill:#ffffff;stroke-width:0.426761" />
    <path
       class="cls-2"
       d="m -109.75986,47.123417 5.9639,15.870552 h -2.24328 l -1.67406,-4.786839 h -6.4452 l -1.71173,4.786839 h -2.05493 l 5.94296,-15.870552 z m 1.4104,9.321284 -2.54458,-7.397844 h -0.042 l -2.58645,7.397844 z"
       id="path1043"
       style="fill:#ffffff;stroke-width:0.426761" />
    <path
       class="cls-2"
       d="m -96.400727,53.167892 h -6.244313 v -1.66669 h 8.596392 v 1.305501 l -6.759092,8.520576 h 7.056234 v 1.66669 h -9.320424 v -1.444754 z"
       id="path1045"
       style="fill:#ffffff;stroke-width:0.426761" />
    <path
       class="cls-2"
       d="m -85.004463,62.993969 v -1.823351 h -0.04186 a 3.6871507,3.8338241 0 0 1 -1.477371,1.566603 4.3902624,4.5649053 0 0 1 -2.092596,0.500443 4.9301517,5.1262711 0 0 1 -1.816372,-0.300265 2.8459279,2.9591378 0 0 1 -1.176037,-0.870335 3.0719281,3.1941281 0 0 1 -0.631964,-1.305502 6.8511531,7.1236892 0 0 1 -0.200889,-1.705857 v -7.554503 h 1.816373 v 7.780791 a 2.1846683,2.2715735 0 0 0 0.598481,1.688449 2.222335,2.3107385 0 0 0 1.644779,0.622289 3.6955212,3.8425276 0 0 0 1.44389,-0.265452 2.7287426,2.837291 0 0 0 1.017002,-0.757192 3.1305208,3.2550516 0 0 0 0.60685,-1.144489 4.5032625,4.6824005 0 0 0 0.205075,-1.4317 v -6.492696 h 1.816372 v 11.492767 z"
       id="path1047"
       style="fill:#ffffff;stroke-width:0.426761" />
    <path
       class="cls-2"
       d="m -79.166126,51.501202 v 2.423881 h 0.04185 a 4.892485,5.087106 0 0 1 1.623853,-2.067045 4.0763732,4.2385297 0 0 1 2.435779,-0.635344 v 2.001769 a 5.1184852,5.3220964 0 0 0 -1.858223,0.30897 2.9296317,3.0461713 0 0 0 -1.255557,0.909499 3.6327433,3.7772525 0 0 0 -0.686371,1.45781 7.5710055,7.872177 0 0 0 -0.213444,1.966958 v 5.113215 h -1.816372 V 51.501202 Z"
       id="path1049"
       style="fill:#ffffff;stroke-width:0.426761" />
    <path
       class="cls-2"
       d="m -66.204599,62.258538 a 5.0222259,5.2220081 0 0 1 -3.122149,0.979126 5.6834856,5.9095723 0 0 1 -2.297669,-0.435167 4.536744,4.7172138 0 0 1 -1.636409,-1.24458 5.093374,5.2959863 0 0 1 -0.996074,-1.910383 9.0567473,9.4170211 0 0 1 -0.372482,-2.423882 6.6963012,6.9626774 0 0 1 0.385037,-2.402124 5.4825965,5.700692 0 0 1 1.100706,-1.89733 4.9008555,5.0958095 0 0 1 1.644777,-1.244578 5.0431518,5.2437663 0 0 1 2.092596,-0.435167 4.536744,4.7172138 0 0 1 2.448333,0.630991 4.8548183,5.047941 0 0 1 1.561076,1.614473 6.1187452,6.3621464 0 0 1 0.811927,2.132319 8.939562,9.2951741 0 0 1 0.184148,2.201948 h -8.303413 a 4.2605216,4.4300034 0 0 0 0.171592,1.4317 3.0342614,3.154963 0 0 0 1.707556,2.036583 3.8210769,3.9730777 0 0 0 1.561076,0.308968 3.1137801,3.237645 0 0 0 1.891705,-0.557015 2.578076,2.6806308 0 0 0 0.97515,-1.688449 h 1.795445 a 4.4195588,4.595367 0 0 1 -1.602928,2.902567 z m -0.439444,-7.397846 a 3.0844836,3.2071831 0 0 0 -0.665445,-1.026995 3.2602616,3.3899534 0 0 0 -3.503002,-0.687563 2.9296317,3.0461713 0 0 0 -0.975148,0.700619 3.3146691,3.4465253 0 0 0 -0.640335,1.031346 3.867114,4.0209462 0 0 0 -0.276222,1.257634 h 6.34893 a 3.7666695,3.9165061 0 0 0 -0.288778,-1.257634 z"
       id="path1051"
       style="fill:#ffffff;stroke-width:0.426761" />
    <rect
       class="cls-2"
       x="-123.77705"
       y="78.619888"
       width="98.017189"
       height="29.920477"
       id="rect931"
       style="fill:#ffffff;stroke-width:0.440475" />
    <path
       class="cls-1"
       d="m -116.9369,94.415588 c 0,-3.519631 2.07812,-5.666969 4.85921,-5.666969 a 4.1562454,4.3129157 0 0 1 3.01393,1.344935 l -0.76447,0.911822 a 3.0183305,3.1321069 0 0 0 -2.2231,-1.030357 c -2.07373,0 -3.44889,1.691428 -3.44889,4.408657 0,2.717227 1.31805,4.463365 3.39176,4.463365 a 3.3302684,3.4558034 0 0 0 2.53945,-1.2264 l 0.76447,0.875349 a 4.3012306,4.4633663 0 0 1 -3.36103,1.57289 c -2.72836,-0.004 -4.77133,-2.106305 -4.77133,-5.653292 z"
       id="path1053"
       style="fill:#20b2aa;stroke-width:0.447553;fill-opacity:1" />
    <path
       class="cls-1"
       d="m -107.71055,95.833472 c 0,-2.630605 1.75738,-4.253649 3.64659,-4.253649 2.06934,0 3.23802,1.481711 3.23802,3.793177 a 4.046408,4.1989381 0 0 1 -0.0614,0.779609 h -5.46553 c 0.0966,1.714224 1.1467,2.822088 2.69321,2.822088 a 3.6422065,3.7795001 0 0 0 2.02102,-0.647395 l 0.49206,0.911823 a 4.9031394,5.087964 0 0 1 -2.68003,0.838875 c -2.1616,-0.0136 -3.88386,-1.58657 -3.88386,-4.244528 z m 5.672,-0.661071 c 0,-1.623044 -0.72932,-2.502951 -1.99904,-2.502951 -1.14232,0 -2.1616,0.911822 -2.32857,2.502951 z"
       id="path1055"
       style="fill:#20b2aa;stroke-width:0.447553;fill-opacity:1" />
    <path
       class="cls-1"
       d="m -98.985074,91.780425 h 1.133529 l 0.11425,1.472591 h 0.04832 c 0.562373,-1.025799 1.392739,-1.673193 2.30658,-1.673193 a 1.9155634,1.9877709 0 0 1 0.878705,0.168695 l -0.254827,1.199045 a 2.4076347,2.4983908 0 0 0 -0.790828,-0.132215 c -0.685384,0 -1.502567,0.492382 -2.051755,1.860115 v 5.188261 h -1.383955 z"
       id="path1057"
       style="fill:#20b2aa;stroke-width:0.447553;fill-opacity:1" />
    <path
       class="cls-1"
       d="m -92.311343,97.365332 v -4.472485 h -1.195035 V 91.85793 l 1.26971,-0.07751 0.166968,-2.279554 h 1.142296 v 2.279554 h 2.196752 v 1.112421 h -2.196752 v 4.495281 c 0,0.989327 0.320732,1.563774 1.256544,1.563774 a 2.7679012,2.8722378 0 0 0 0.922634,-0.218837 l 0.268004,1.034922 a 5.2062905,5.4025425 0 0 1 -1.506971,0.296339 c -1.739824,0 -2.32415,-1.089629 -2.32415,-2.698991 z"
       id="path1059"
       style="fill:#20b2aa;stroke-width:0.447553;fill-opacity:1" />
    <path
       class="cls-1"
       d="m -87.21929,89.236443 a 0.95338827,0.98932636 0 1 1 0.948994,0.879908 0.87869881,0.91182152 0 0 1 -0.948994,-0.879908 z m 0.254823,2.543982 h 1.366377 v 8.083299 h -1.366377 z"
       id="path1061"
       style="fill:#20b2aa;stroke-width:0.447553;fill-opacity:1" />
    <path
       class="cls-1"
       d="m -84.016432,92.387097 1.159882,-0.07751 h 3.031511 v 1.112421 h -4.191393 z m 1.098373,-1.367733 c 0,-1.645838 0.751289,-2.689874 2.37688,-2.689874 a 3.795979,3.9390689 0 0 1 1.348803,0.278106 l -0.28997,1.048595 a 2.2275016,2.3114675 0 0 0 -0.91824,-0.20972 c -0.764469,0 -1.142309,0.533417 -1.142309,1.577453 v 9.355286 h -1.375164 z"
       id="path1063"
       style="fill:#20b2aa;stroke-width:0.447553;fill-opacity:1" />
    <path
       class="cls-1"
       d="m -78.5685,89.236443 a 0.95338827,0.98932636 0 1 1 0.948994,0.879908 0.87869881,0.91182152 0 0 1 -0.948994,-0.879908 z m 0.250431,2.543982 h 1.375161 v 8.083299 h -1.375161 z"
       id="path1065"
       style="fill:#20b2aa;stroke-width:0.447553;fill-opacity:1" />
    <path
       class="cls-1"
       d="m -75.124001,95.833472 c 0,-2.630605 1.757398,-4.253649 3.646601,-4.253649 2.069335,0 3.238003,1.481711 3.238003,3.793177 a 3.6685675,3.8068547 0 0 1 -0.0659,0.779609 h -5.461109 c 0.09666,1.714224 1.146701,2.822088 2.693213,2.822088 a 3.6422065,3.7795001 0 0 0 2.021006,-0.647395 l 0.492071,0.911823 a 4.9031394,5.087964 0 0 1 -2.68003,0.838875 c -2.161599,-0.0136 -3.88385,-1.58657 -3.88385,-4.244528 z M -69.452,95.172401 c 0,-1.623044 -0.733713,-2.502951 -1.99904,-2.502951 -1.142309,0 -2.161599,0.911822 -2.328551,2.502951 z"
       id="path1067"
       style="fill:#20b2aa;stroke-width:0.447553;fill-opacity:1" />
    <path
       class="cls-1"
       d="m -66.745606,95.833472 c 0,-2.621488 1.660741,-4.253649 3.514794,-4.253649 a 3.4005645,3.5287492 0 0 1 2.27583,0.939178 l -0.05713,-1.367733 v -3.113869 h 1.370771 v 11.853679 h -1.133523 l -0.114226,-0.952855 h -0.04832 a 3.6422065,3.7795001 0 0 1 -2.460356,1.153457 c -2.034188,-0.0274 -3.347841,-1.563776 -3.34784,-4.258208 z m 5.711541,1.978652 v -4.258206 a 2.9216736,3.0318064 0 0 0 -1.981466,-0.838876 c -1.296082,0 -2.328552,1.244636 -2.328552,3.086516 0,1.93762 0.80401,3.095634 2.227502,3.095634 0.768861,0.01823 1.419099,-0.328255 2.122057,-1.085068 z"
       id="path1069"
       style="fill:#20b2aa;stroke-width:0.447553;fill-opacity:1" />
  </g>
  <g
     inkscape:groupmode="layer"
     id="layer3"
     inkscape:label="Layer 3"
     transform="translate(127.65785,-11.134908)" />
</svg>
