<?xml version="1.0" encoding="UTF-8" standalone="no"?>
<!-- Created with Inkscape (http://www.inkscape.org/) -->

<svg
   width="68mm"
   height="68mm"
   viewBox="0 0 68.000002 68"
   version="1.1"
   id="svg1085"
   inkscape:version="1.1.1 (c3084ef, 2021-09-22)"
   sodipodi:docname="azure68x68.svg"
   xmlns:inkscape="http://www.inkscape.org/namespaces/inkscape"
   xmlns:sodipodi="http://sodipodi.sourceforge.net/DTD/sodipodi-0.dtd"
   xmlns="http://www.w3.org/2000/svg"
   xmlns:svg="http://www.w3.org/2000/svg">
  <sodipodi:namedview
     id="namedview1087"
     pagecolor="#ffffff"
     bordercolor="#666666"
     borderopacity="1.0"
     inkscape:pageshadow="2"
     inkscape:pageopacity="0.0"
     inkscape:pagecheckerboard="0"
     inkscape:document-units="mm"
     showgrid="false"
     inkscape:zoom="0.64052329"
     inkscape:cx="281.80084"
     inkscape:cy="263.06616"
     inkscape:window-width="1312"
     inkscape:window-height="969"
     inkscape:window-x="51"
     inkscape:window-y="38"
     inkscape:window-maximized="0"
     inkscape:current-layer="layer2" />
  <defs
     id="defs1082">
    <path
       id="MyPath2"
       stroke="#add8e6"
       fill="none"
       d="m 100,150 a 50,50 0 0 1 0,-100 50,50 0 0 1 0,100 z" />
    <path
       id="MyPath2-3"
       stroke="#add8e6"
       fill="none"
       d="m 100,150 a 50,50 0 0 1 0,-100 50,50 0 0 1 0,100 z" />
    <path
       id="MyPath2-3-1"
       stroke="#add8e6"
       fill="none"
       d="m 100,150 a 50,50 0 0 1 0,-100 50,50 0 0 1 0,100 z" />
  </defs>
  <g
     inkscape:label="Layer 1"
     inkscape:groupmode="layer"
     id="layer1"
     transform="translate(127.24478,-11.961055)">
    <rect
       style="display:inline;fill:#20b2aa;fill-opacity:1;stroke-width:1.99912;stroke-miterlimit:4;stroke-dasharray:none"
       id="rect46544"
       width="68"
       height="68"
       x="-127.24478"
       y="11.961055" />
  </g>
  <g
     inkscape:groupmode="layer"
     id="layer2"
     inkscape:label="Layer 2"
     transform="translate(127.24478,-11.961055)">
    <ellipse
       style="fill:#20b2aa;fill-opacity:1;stroke-width:0.164184"
       id="path5571-7"
       cx="-93.961456"
       cy="45.838047"
       rx="21.52849"
       ry="21.715549" />
    <path
       class="cls-2"
       d="m -109.84134,33.444969 h -1.17794 v -7.320907 q 0,-0.867028 0.0984,-2.112825 h -0.0274 a 6.4444931,6.9776473 0 0 1 -0.30063,1.056412 l -3.42177,8.37732 h -0.57392 l -3.42996,-8.315178 a 5.8295605,6.311841 0 0 1 -0.29791,-1.118554 h -0.0274 q 0.0547,0.65101 0.0547,2.12762 v 7.306112 h -1.13693 V 22.543505 h 1.5551 l 3.08013,7.602025 a 9.1747937,9.9338256 0 0 1 0.45368,1.307938 h 0.0492 q 0.34709,-1.047534 0.48375,-1.33753 l 3.14024,-7.572433 h 1.47859 v 10.901464"
       id="path1025"
       style="fill:#ffffff;stroke-width:0.284383" />
    <path
       class="cls-2"
       d="m -106.57536,33.444969 h -1.14788 v -7.782533 h 1.14788 v 7.782533 m 0.19677,-10.572999 a 0.71332174,0.77233496 0 0 1 -0.22411,0.591826 0.74065209,0.80192638 0 0 1 -0.5466,0.233772 0.74885121,0.81080378 0 0 1 -0.54661,-0.224894 0.75705027,0.81968118 0 1 1 1.28999,-0.591828"
       id="path1027"
       style="fill:#ffffff;stroke-width:0.284383" />
    <path
       class="cls-2"
       d="m -99.781041,33.086912 a 3.7005274,4.0066727 0 0 1 -1.973249,0.541524 3.4572874,3.7433093 0 0 1 -1.76007,-0.48826 3.1375225,3.3970902 0 0 1 -1.21347,-1.387835 3.9437675,4.270036 0 0 1 -0.43455,-2.015172 q 0,-1.929358 1.01942,-3.101177 a 3.5529436,3.8468792 0 0 1 2.71117,-1.183655 3.6240026,3.9238168 0 0 1 1.658949,0.396525 v 1.278347 a 2.9352781,3.1781141 0 0 0 -1.708149,-0.600704 2.2875491,2.4767984 0 0 0 -1.8038,0.887741 3.0063369,3.2550516 0 0 0 -0.69692,2.231189 2.858753,3.0952582 0 0 0 0.66139,2.151294 2.282083,2.47088 0 0 0 1.77647,0.790089 2.9079477,3.1485227 0 0 0 1.762809,-0.668765 v 1.183655"
       id="path1029"
       style="fill:#ffffff;stroke-width:0.284383" />
    <path
       class="cls-2"
       d="m -94.667536,26.923029 a 1.5304987,1.6571172 0 0 0 -2.112634,0.529685 3.3261018,3.6012707 0 0 0 -0.475548,2.032928 v 3.959327 h -1.147874 v -7.782533 h 1.147874 v 1.603852 h 0.02734 a 2.5526533,2.7638348 0 0 1 0.735185,-1.275387 1.6890147,1.8287472 0 0 1 1.139675,-0.467545 1.869395,2.0240503 0 0 1 0.685992,0.106529 v 1.293144"
       id="path1031"
       style="fill:#ffffff;stroke-width:0.284383" />
    <path
       class="cls-2"
       d="m -88.63573,29.568499 c 0,-0.976516 -0.199512,-1.728138 -0.598534,-2.248946 a 2.0935037,2.2666996 0 0 0 -1.702681,-0.793048 2.1864268,2.3673102 0 0 0 -1.751873,0.801926 c -0.429087,0.535604 -0.642264,1.287225 -0.642264,2.260781 0,0.973556 0.21591,1.663036 0.647728,2.186803 a 2.2164902,2.3998608 0 0 0 1.746409,0.78713 2.1071689,2.2814953 0 0 0 1.713612,-0.775295 q 0.587603,-0.766415 0.587603,-2.219351 m 1.175204,-0.04439 a 3.8918397,4.2138122 0 0 1 -0.970227,2.982811 3.3780295,3.6574944 0 0 1 -2.590916,1.121513 3.2960385,3.5687203 0 0 1 -2.533521,-1.091922 3.741523,4.0510597 0 0 1 -0.948363,-2.891078 q 0,-1.929357 0.972959,-3.053831 0.972961,-1.124471 2.678373,-1.121513 1.596092,0 2.497993,1.083045 0.9019,1.083044 0.904634,2.959138"
       id="path1033"
       style="fill:#ffffff;stroke-width:0.284383" />
    <path
       class="cls-2"
       d="m -82.122911,31.361735 a 1.8611959,2.0151729 0 0 1 -0.716055,1.642322 2.938011,3.1810732 0 0 1 -1.913123,0.630296 3.5283463,3.8202469 0 0 1 -1.776472,-0.470502 V 31.82632 a 2.8778844,3.1159722 0 0 0 1.861195,0.745702 q 1.366516,0 1.366516,-1.088961 a 0.87183774,0.94396498 0 0 0 -0.273302,-0.716112 5.0424468,5.4596093 0 0 0 -1.210734,-0.748663 3.6322016,3.9326943 0 0 1 -1.344653,-0.946923 2.0087797,2.1749663 0 0 1 0.322498,-2.959138 2.7330335,2.9591378 0 0 1 1.817467,-0.642134 3.3971607,3.6782083 0 0 1 1.533233,0.366934 V 27.0917 a 2.6783728,2.8999551 0 0 0 -1.617957,-0.565195 1.3965802,1.5121194 0 0 0 -0.912832,0.295913 0.8800368,0.95284238 0 0 0 -0.347096,0.781212 0.97295994,1.0534531 0 0 0 0.273303,0.796007 4.0339576,4.3676875 0 0 0 1.093215,0.65693 3.9273693,4.2522811 0 0 1 1.432108,1.020902 1.7628066,1.908644 0 0 1 0.412689,1.299062"
       id="path1035"
       style="fill:#ffffff;stroke-width:0.284383" />
    <path
       class="cls-2"
       d="m -75.467975,29.568499 c 0,-0.976516 -0.199511,-1.728138 -0.598534,-2.248946 a 2.0935037,2.2666996 0 0 0 -1.710879,-0.793048 2.1864268,2.3673102 0 0 0 -1.749141,0.801926 c -0.429087,0.535604 -0.644997,1.287225 -0.644997,2.260781 0,0.973556 0.21591,1.663036 0.64773,2.186803 a 2.2246893,2.4087382 0 0 0 1.746408,0.78713 2.1071689,2.2814953 0 0 0 1.713613,-0.766416 q 0.593068,-0.775294 0.5958,-2.22823 m 1.175205,-0.04439 c 0,1.23396 -0.322498,2.231189 -0.967494,2.982811 a 3.3862286,3.6663718 0 0 1 -2.601848,1.121513 3.3015045,3.5746385 0 0 1 -2.536255,-1.09784 3.7524551,4.0628962 0 0 1 -0.948363,-2.891078 q 0,-1.929358 0.972961,-3.053829 0.972959,-1.124473 2.670173,-1.115597 1.596091,0 2.497992,1.083045 0.901902,1.083044 0.901902,2.959138"
       id="path1037"
       style="fill:#ffffff;stroke-width:0.284383" />
    <path
       class="cls-2"
       d="m -69.58922,23.016967 a 1.5141005,1.6393624 0 0 0 -0.765249,-0.20714 q -1.199802,0 -1.202534,1.651199 v 1.20141 h 1.680815 v 1.056412 h -1.680815 v 6.726121 h -1.147875 v -6.726121 h -1.218933 v -1.056412 h 1.218933 v -1.263552 a 2.4597303,2.6632241 0 0 1 0.644995,-1.914562 2.1590965,2.3377189 0 0 1 1.639821,-0.730907 2.3066803,2.4975124 0 0 1 0.833576,0.13612 v 1.127432"
       id="path1039"
       style="fill:#ffffff;stroke-width:0.284383" />
    <path
       class="cls-2"
       d="m -65.421342,33.36803 a 2.1864268,2.3673102 0 0 1 -1.076817,0.260406 q -1.877593,0 -1.87486,-2.296292 v -4.613296 h -1.232599 v -1.056412 h 1.232599 V 23.75971 l 1.145141,-0.402443 v 2.305169 h 1.806536 v 1.056412 h -1.806536 v 4.391361 a 1.6671505,1.8050741 0 0 0 0.245973,1.115595 0.99755725,1.0800853 0 0 0 0.81991,0.331423 1.224399,1.3256937 0 0 0 0.740653,-0.251527 v 1.06233"
       id="path1041"
       style="fill:#ffffff;stroke-width:0.284383" />
    <path
       class="cls-2"
       d="m -115.82669,35.871461 3.89458,10.791975 h -1.46492 l -1.0932,-3.25505 h -4.20888 l -1.1178,3.25505 h -1.34192 l 3.8809,-10.791975 z m 0.92103,6.338473 -1.66167,-5.030534 h -0.0274 l -1.68902,5.030534 z"
       id="path1043"
       style="fill:#ffffff;stroke-width:0.284383" />
    <path
       class="cls-2"
       d="m -107.10284,39.981704 h -4.07769 v -1.133349 h 5.61366 v 0.887741 l -4.41386,5.793991 h 4.6079 v 1.133349 h -6.08647 v -0.982432 z"
       id="path1045"
       style="fill:#ffffff;stroke-width:0.284383" />
    <path
       class="cls-2"
       d="m -99.660787,46.663436 v -1.239878 h -0.02734 a 2.4078025,2.6070004 0 0 1 -0.964753,1.06529 2.8669522,3.1041356 0 0 1 -1.36652,0.340301 3.2195135,3.4858643 0 0 1 -1.18614,-0.20418 1.8584628,2.0122137 0 0 1 -0.76798,-0.591828 2.0060466,2.1720071 0 0 1 -0.41269,-0.887741 4.4739759,4.8441087 0 0 1 -0.13118,-1.159983 v -5.137062 h 1.18613 v 5.290938 a 1.4266435,1.54467 0 0 0 0.39083,1.148145 1.4512409,1.5713022 0 0 0 1.07408,0.423157 2.4132686,2.6129188 0 0 0 0.9429,-0.180508 1.7819378,1.9293579 0 0 0 0.66412,-0.51489 2.0443091,2.2134351 0 0 0 0.396288,-0.778253 2.9407441,3.1840323 0 0 0 0.133919,-0.973556 v -4.415033 h 1.186137 v 7.815081 z"
       id="path1047"
       style="fill:#ffffff;stroke-width:0.284383" />
    <path
       class="cls-2"
       d="m -95.848206,38.848355 v 1.648239 h 0.02733 a 3.1949162,3.4592321 0 0 1 1.060417,-1.405591 2.6619746,2.8822002 0 0 1 1.590625,-0.432034 v 1.361203 a 3.3425,3.6190256 0 0 0 -1.213466,0.2101 1.9131235,2.0713965 0 0 0 -0.81991,0.618459 2.3722731,2.5685317 0 0 0 -0.448218,0.991311 4.9440577,5.3530804 0 0 0 -0.139384,1.337532 v 3.476986 h -1.186138 v -7.806205 z"
       id="path1049"
       style="fill:#ffffff;stroke-width:0.284383" />
    <path
       class="cls-2"
       d="m -87.384002,46.163343 a 3.2796403,3.5509655 0 0 1 -2.038842,0.665806 3.7114596,4.0185092 0 0 1 -1.500435,-0.295914 2.9626084,3.2077054 0 0 1 -1.068617,-0.846314 3.3261018,3.6012707 0 0 1 -0.650461,-1.29906 5.9142846,6.4035743 0 0 1 -0.24324,-1.64824 4.3728537,4.7346206 0 0 1 0.251438,-1.633444 3.5802739,3.8764706 0 0 1 0.718789,-1.290185 3.2003824,3.4651505 0 0 1 1.074081,-0.846313 3.2933054,3.5657611 0 0 1 1.366518,-0.295913 2.9626084,3.2077054 0 0 1 1.598823,0.429073 3.1703189,3.4325999 0 0 1 1.019422,1.097842 3.9956951,4.3262596 0 0 1 0.530209,1.449977 5.8377596,6.3207184 0 0 1 0.120254,1.497325 h -5.422339 a 2.7822282,3.0124023 0 0 0 0.112054,0.973556 1.9814493,2.1453748 0 0 0 1.115077,1.384876 2.4952597,2.7016928 0 0 0 1.019422,0.210098 2.033377,2.2015986 0 0 0 1.235331,-0.37877 1.6835487,1.8228289 0 0 0 0.636798,-1.148145 h 1.172471 a 2.8860835,3.1248496 0 0 1 -1.046753,1.973745 z m -0.286968,-5.030535 a 2.0142457,2.1808845 0 0 0 -0.434552,-0.698357 2.1290331,2.3051683 0 0 0 -2.287549,-0.467542 1.9131235,2.0713965 0 0 0 -0.636796,0.476421 2.1645626,2.3436372 0 0 0 -0.418155,0.701315 2.5253231,2.7342434 0 0 0 -0.18038,0.855191 h 4.146012 a 2.4597303,2.6632241 0 0 0 -0.18858,-0.855191 z"
       id="path1051"
       style="fill:#ffffff;stroke-width:0.284383" />
    <rect
       class="cls-2"
       x="-124.98026"
       y="57.289062"
       width="64.007698"
       height="20.345924"
       id="rect931"
       style="fill:#ffffff;stroke-width:0.293522" />
    <path
       class="cls-1"
       d="m -120.51347,68.030137 c 0,-2.393349 1.35706,-3.853539 3.17318,-3.853539 a 2.7141332,2.9327827 0 0 1 1.96817,0.914556 l -0.49921,0.620039 a 1.971046,2.1298327 0 0 0 -1.45174,-0.700643 c -1.3542,0 -2.25222,1.150171 -2.25222,2.997887 0,1.847715 0.86072,3.035088 2.21491,3.035088 a 2.1747493,2.3499463 0 0 0 1.65832,-0.833952 l 0.49922,0.595238 a 2.8088122,3.0350891 0 0 1 -2.19484,1.069565 c -1.78168,-0.0027 -3.11579,-1.432287 -3.11579,-3.844239 z"
       id="path1053"
       style="fill:#20b2aa;fill-opacity:1;stroke-width:0.298238" />
    <path
       class="cls-1"
       d="m -114.48844,68.994298 c 0,-1.788811 1.14762,-2.892481 2.38132,-2.892481 1.35133,0 2.11451,1.007564 2.11451,2.579361 a 2.6424066,2.8552779 0 0 1 -0.0401,0.530134 h -3.56913 c 0.0631,1.165672 0.74883,1.919019 1.75874,1.919019 a 2.3784528,2.5700601 0 0 0 1.31978,-0.440228 l 0.32132,0.62004 a 3.2018738,3.4598155 0 0 1 -1.75012,0.570435 c -1.41158,-0.0092 -2.53626,-1.078868 -2.53626,-2.88628 z m 3.70396,-0.449528 c 0,-1.10367 -0.47626,-1.702006 -1.30542,-1.702006 -0.74596,0 -1.41158,0.620038 -1.52061,1.702006 z"
       id="path1055"
       style="fill:#20b2aa;fill-opacity:1;stroke-width:0.298238" />
    <path
       class="cls-1"
       d="m -108.79048,66.238227 h 0.74022 l 0.0746,1.001361 h 0.0316 c 0.36724,-0.697543 0.90949,-1.137771 1.50625,-1.137771 a 1.2509113,1.3516842 0 0 1 0.57382,0.114713 l -0.16641,0.81535 a 1.5722462,1.6989057 0 0 0 -0.51643,-0.08991 c -0.44757,0 -0.98122,0.33482 -1.33985,1.264878 v 3.528018 h -0.90376 z"
       id="path1057"
       style="fill:#20b2aa;fill-opacity:1;stroke-width:0.298238" />
    <path
       class="cls-1"
       d="m -104.43236,70.035963 v -3.04129 h -0.78039 V 66.29093 l 0.82915,-0.05271 0.10903,-1.550097 h 0.74595 v 1.550097 h 1.43454 v 0.756446 h -1.43454 v 3.056791 c 0,0.672743 0.20945,1.063367 0.82056,1.063367 a 1.8075094,1.9531217 0 0 0 0.6025,-0.148809 l 0.17501,0.703747 a 3.3998391,3.6737289 0 0 1 -0.98409,0.20151 c -1.13614,0 -1.51772,-0.740948 -1.51772,-1.835314 z"
       id="path1059"
       style="fill:#20b2aa;fill-opacity:1;stroke-width:0.298238" />
    <path
       class="cls-1"
       d="m -101.10713,64.508319 a 0.62258661,0.67274192 0 1 1 0.61972,0.598337 0.5738125,0.62003863 0 0 1 -0.61972,-0.598337 z m 0.16641,1.729908 h 0.89228 v 5.496643 h -0.89228 z"
       id="path1061"
       style="fill:#20b2aa;fill-opacity:1;stroke-width:0.298238" />
    <path
       class="cls-1"
       d="m -99.015578,66.650763 0.757432,-0.05271 h 1.979653 v 0.756446 h -2.737085 z m 0.717265,-0.930058 c 0,-1.11917 0.490611,-1.829114 1.552163,-1.829114 a 2.4788701,2.6785669 0 0 1 0.880802,0.189112 l -0.189357,0.713044 a 1.4546148,1.5717979 0 0 0 -0.599634,-0.142609 c -0.499218,0 -0.745957,0.362723 -0.745957,1.072668 V 72.0854 h -0.898017 z"
       id="path1063"
       style="fill:#20b2aa;fill-opacity:1;stroke-width:0.298238" />
    <path
       class="cls-1"
       d="m -95.457941,64.508319 a 0.62258661,0.67274192 0 1 1 0.619717,0.598337 0.5738125,0.62003863 0 0 1 -0.619717,-0.598337 z m 0.163538,1.729908 h 0.898015 v 5.496643 h -0.898015 z"
       id="path1065"
       style="fill:#20b2aa;fill-opacity:1;stroke-width:0.298238" />
    <path
       class="cls-1"
       d="m -93.208596,68.994298 c 0,-1.788811 1.147625,-2.892481 2.381322,-2.892481 1.351328,0 2.114498,1.007564 2.114498,2.579361 a 2.3956672,2.5886612 0 0 1 -0.04303,0.530134 h -3.566242 c 0.06312,1.165672 0.748824,1.919019 1.758736,1.919019 a 2.3784528,2.5700601 0 0 0 1.319768,-0.440228 l 0.321334,0.62004 a 3.2018738,3.4598155 0 0 1 -1.750127,0.570435 c -1.411579,-0.0092 -2.536252,-1.078868 -2.536252,-2.88628 z m 3.70396,-0.449528 c 0,-1.10367 -0.479133,-1.702006 -1.305424,-1.702006 -0.745957,0 -1.411579,0.620038 -1.520602,1.702006 z"
       id="path1067"
       style="fill:#20b2aa;fill-opacity:1;stroke-width:0.298238" />
    <path
       class="cls-1"
       d="m -87.737293,68.994298 c 0,-1.782611 1.084506,-2.892481 2.295249,-2.892481 a 2.2206545,2.3995495 0 0 1 1.486175,0.638641 l -0.03731,-0.930058 v -2.117431 h 0.895148 v 8.060502 h -0.740219 l -0.07459,-0.647942 h -0.03155 a 2.3784528,2.5700601 0 0 1 -1.606675,0.784351 c -1.328376,-0.01863 -2.186224,-1.063368 -2.186224,-2.895582 z m 3.729781,1.345484 v -2.89558 a 1.9079266,2.0616284 0 0 0 -1.293948,-0.570436 c -0.846374,0 -1.520603,0.846353 -1.520603,2.098831 0,1.317582 0.525039,2.105031 1.454615,2.105031 0.502086,0.0124 0.926708,-0.223213 1.385757,-0.737846 z"
       id="path1069"
       style="fill:#20b2aa;fill-opacity:1;stroke-width:0.298238" />
  </g>
  <g
     inkscape:groupmode="layer"
     id="layer3"
     inkscape:label="Layer 3"
     transform="translate(127.24478,-11.961055)" />
</svg>
