<?xml version="1.0" encoding="UTF-8" standalone="no"?>
<!-- Created with Inkscape (http://www.inkscape.org/) -->

<svg
   width="104.13074mm"
   height="100mm"
   viewBox="0 0 104.13074 100"
   version="1.1"
   id="svg1085"
   inkscape:version="1.1.1 (c3084ef, 2021-09-22)"
   sodipodi:docname="ccsp.svg"
   xmlns:inkscape="http://www.inkscape.org/namespaces/inkscape"
   xmlns:sodipodi="http://sodipodi.sourceforge.net/DTD/sodipodi-0.dtd"
   xmlns="http://www.w3.org/2000/svg"
   xmlns:svg="http://www.w3.org/2000/svg">
  <sodipodi:namedview
     id="namedview1087"
     pagecolor="#ffffff"
     bordercolor="#666666"
     borderopacity="1.0"
     inkscape:pageshadow="2"
     inkscape:pageopacity="0.0"
     inkscape:pagecheckerboard="0"
     inkscape:document-units="mm"
     showgrid="false"
     inkscape:zoom="0.64052329"
     inkscape:cx="170.95397"
     inkscape:cy="244.33147"
     inkscape:window-width="1312"
     inkscape:window-height="969"
     inkscape:window-x="51"
     inkscape:window-y="66"
     inkscape:window-maximized="0"
     inkscape:current-layer="layer2" />
  <defs
     id="defs1082">
    <path
       id="MyPath2"
       stroke="#add8e6"
       fill="none"
       d="m 100,150 a 50,50 0 0 1 0,-100 50,50 0 0 1 0,100 z" />
    <path
       id="MyPath2-3"
       stroke="#add8e6"
       fill="none"
       d="m 100,150 a 50,50 0 0 1 0,-100 50,50 0 0 1 0,100 z" />
    <path
       id="MyPath2-3-1"
       stroke="#add8e6"
       fill="none"
       d="m 100,150 a 50,50 0 0 1 0,-100 50,50 0 0 1 0,100 z" />
  </defs>
  <g
     inkscape:label="Layer 1"
     inkscape:groupmode="layer"
     id="layer1"
     transform="translate(127.65785,-11.134908)">
    <rect
       style="display:inline;fill:#20b2aa;fill-opacity:1;stroke-width:2.99999;stroke-miterlimit:4;stroke-dasharray:none"
       id="rect46544"
       width="104.13074"
       height="100"
       x="-127.24478"
       y="11.961055" />
  </g>
  <g
     inkscape:groupmode="layer"
     id="layer2"
     inkscape:label="Layer 2"
     transform="translate(127.65785,-11.134908)">
    <path
       d="m -109.10441,94.790834 h 68 v -68 h -68 z"
       style="fill:#294b44;fill-opacity:1;fill-rule:nonzero;stroke:none;stroke-width:1.03253"
       id="path2534" />
    <path
       d="m -87.364362,72.835787 c -1.959164,-1.139286 -3.635933,-1.649811 -5.477276,-1.649811 -3.637052,0 -6.340508,2.577654 -6.340508,6.059504 0,3.555578 2.610769,6.019164 6.433199,6.019164 1.794995,0 3.751505,-0.628762 5.546513,-1.790307 v 2.488628 c -1.560497,0.813774 -3.261831,1.392458 -5.758135,1.392458 -5.965287,0 -8.577181,-4.576623 -8.577181,-7.895715 0,-4.83258 3.660503,-8.361727 8.717891,-8.361727 1.633068,0 3.286387,0.393688 5.455497,1.297868 v 2.439938"
       style="fill:#ffffff;fill-opacity:1;fill-rule:nonzero;stroke:none;stroke-width:1.11479"
       id="path2536" />
    <path
       d="m -61.626134,72.787098 c -1.350685,-1.275609 -2.656556,-1.647027 -3.730713,-1.647027 -1.466823,0 -2.516551,0.765089 -2.516551,1.880729 0,3.045053 6.875981,2.997756 6.875981,8.037607 0,2.485844 -1.888244,4.297016 -4.452252,4.297016 -1.722982,0 -3.124329,-0.464615 -4.451003,-1.463406 v -2.879515 c 1.165718,1.487053 2.635335,2.298051 4.194848,2.298051 1.772115,0 2.587328,-1.117032 2.587328,-1.99897 0,-3.271799 -6.875981,-3.643216 -6.875981,-7.987529 0,-2.577654 1.912251,-4.226073 4.826781,-4.226073 1.212208,0 2.422598,0.370008 3.541562,1.114248 v 2.574869"
       style="fill:#ffffff;fill-opacity:1;fill-rule:nonzero;stroke:none;stroke-width:1.11479"
       id="path2542" />
    <path
       d="m -58.846316,69.305248 v 15.841516 h 2.284695 v -6.851023 h 2.374722 c 3.683387,0 5.363929,-1.953065 5.363929,-4.437516 0,-2.512275 -1.586737,-4.552977 -5.060177,-4.552977 z m 2.284695,2.040702 h 2.678474 c 2.076411,0 2.703456,1.256135 2.703456,2.41768 0,1.58026 -1.093281,2.488628 -2.794615,2.488628 h -2.587315 V 71.34595"
       style="fill:#ffffff;fill-opacity:1;fill-rule:nonzero;stroke:none;stroke-width:1.11479"
       id="path2544" />
    <path
       d="m -45.112359,69.609894 c -1.12706,0 -2.03775,0.906976 -2.03775,2.032353 0,1.123985 0.91069,2.029573 2.03775,2.029573 1.128735,0 2.038167,-0.905588 2.038167,-2.029573 0,-1.125377 -0.909432,-2.032353 -2.038167,-2.032353 z m 0,0.403404 c 0.905109,0 1.641315,0.726141 1.641315,1.628945 0,0.901416 -0.736206,1.633117 -1.641315,1.633117 -0.903578,0 -1.63154,-0.731701 -1.63154,-1.633117 0,-0.902804 0.727962,-1.628945 1.63154,-1.628945 z m 0.961359,2.715373 -0.252525,-0.435404 c -0.218169,-0.378378 -0.276372,-0.440973 -0.46191,-0.50496 v -0.01094 c 0.365429,-0.04307 0.583492,-0.275413 0.583492,-0.602335 0,-0.342206 -0.218042,-0.60233 -0.68162,-0.60233 h -1.068708 v 2.156159 h 0.436214 v -0.887503 h 0.08176 c 0.190819,0 0.265483,0.02355 0.354413,0.109821 0.0872,0.08757 0.218169,0.272638 0.294395,0.424275 l 0.174484,0.353352 z m -1.445048,-1.226924 V 70.90915 h 0.403542 c 0.294394,0 0.445432,0.102922 0.445432,0.292111 0,0.151629 -0.09649,0.300482 -0.398097,0.300482 h -0.450882"
       style="fill:#ffffff;fill-opacity:1;fill-rule:nonzero;stroke:none;stroke-width:1.11479"
       id="path2546" />
    <path
       d="m -72.206402,72.849281 c -1.959164,-1.139286 -3.635933,-1.649811 -5.477276,-1.649811 -3.637052,0 -6.340508,2.577654 -6.340508,6.059504 0,3.555578 2.610769,6.019164 6.433199,6.019164 1.794995,0 3.751505,-0.628762 5.546513,-1.790307 v 2.488628 c -1.560497,0.813774 -3.261831,1.392458 -5.758135,1.392458 -5.965287,0 -8.577181,-4.576623 -8.577181,-7.895715 0,-4.83258 3.660503,-8.361727 8.717891,-8.361727 1.633068,0 3.286387,0.393688 5.455497,1.297868 v 2.439938"
       style="fill:#ffffff;fill-opacity:1;fill-rule:nonzero;stroke:none;stroke-width:1.11479"
       id="path2536-4" />
  </g>
  <g
     inkscape:groupmode="layer"
     id="layer3"
     inkscape:label="Layer 3"
     transform="translate(127.65785,-11.134908)" />
</svg>
