<?xml version="1.0" encoding="UTF-8" standalone="no"?>
<!-- Created with Inkscape (http://www.inkscape.org/) -->

<svg
   width="68mm"
   height="68mm"
   viewBox="0 0 68.000002 68"
   version="1.1"
   id="svg1085"
   inkscape:version="1.1.1 (c3084ef, 2021-09-22)"
   sodipodi:docname="gcp68x68.svg"
   xmlns:inkscape="http://www.inkscape.org/namespaces/inkscape"
   xmlns:sodipodi="http://sodipodi.sourceforge.net/DTD/sodipodi-0.dtd"
   xmlns:xlink="http://www.w3.org/1999/xlink"
   xmlns="http://www.w3.org/2000/svg"
   xmlns:svg="http://www.w3.org/2000/svg">
  <sodipodi:namedview
     id="namedview1087"
     pagecolor="#ffffff"
     bordercolor="#666666"
     borderopacity="1.0"
     inkscape:pageshadow="2"
     inkscape:pageopacity="0.0"
     inkscape:pagecheckerboard="0"
     inkscape:document-units="mm"
     showgrid="false"
     inkscape:zoom="0.64052329"
     inkscape:cx="-53.86221"
     inkscape:cy="281.80084"
     inkscape:window-width="1312"
     inkscape:window-height="969"
     inkscape:window-x="51"
     inkscape:window-y="66"
     inkscape:window-maximized="0"
     inkscape:current-layer="layer2" />
  <defs
     id="defs1082">
    <path
       id="MyPath2"
       stroke="#add8e6"
       fill="none"
       d="m 100,150 a 50,50 0 0 1 0,-100 50,50 0 0 1 0,100 z" />
    <path
       id="MyPath2-3"
       stroke="#add8e6"
       fill="none"
       d="m 100,150 a 50,50 0 0 1 0,-100 50,50 0 0 1 0,100 z" />
    <path
       id="MyPath2-3-1"
       stroke="#add8e6"
       fill="none"
       d="m 100,150 a 50,50 0 0 1 0,-100 50,50 0 0 1 0,100 z" />
  </defs>
  <g
     inkscape:label="Layer 1"
     inkscape:groupmode="layer"
     id="layer1"
     transform="translate(127.65785,-11.134908)">
    <rect
       style="display:inline;fill:#20b2aa;fill-opacity:1;stroke-width:1.99912;stroke-miterlimit:4;stroke-dasharray:none"
       id="rect46544"
       width="68"
       height="68"
       x="-127.65785"
       y="11.134908" />
  </g>
  <g
     inkscape:groupmode="layer"
     id="layer2"
     inkscape:label="Layer 2"
     transform="translate(127.65785,-11.134908)">
    <ellipse
       style="fill:#ffffff;stroke-width:0.222644"
       id="path5571"
       cx="-94.057487"
       cy="45.280544"
       rx="28.73311"
       ry="29.92" />
    <ellipse
       style="fill:#20b2aa;fill-opacity:1;stroke-width:0.164184"
       id="path5571-7"
       cx="-94.104782"
       cy="45.573677"
       rx="21.528488"
       ry="21.715549" />
    <g
       id="g23600"
       transform="matrix(0.13063152,0,0,0.13214563,-110.59023,28.931243)"
       style="fill:#ffffff;fill-opacity:1">
      <path
         d="m 170.2517,56.8186 22.253,-22.253 1.483,-9.37 c -40.551,-36.873 -105.012,-32.692 -141.567,8.724 -10.154,11.503 -17.687,25.844 -21.704,40.653 l 7.97,-1.123 44.505,-7.339 3.436,-3.514 c 19.797,-21.742 53.27,-24.667 76.128,-6.168 z"
         fill="#ea4335"
         id="path23592"
         style="fill:#ffffff;fill-opacity:1" />
      <path
         d="m 224.2048,73.9182 c -5.115,-18.836 -15.616,-35.769 -30.217,-48.722 l -31.232,31.232 c 13.188,10.776 20.701,27.01 20.379,44.037 v 5.544 c 15.351,0 27.797,12.445 27.797,27.796 0,15.352 -12.446,27.485 -27.797,27.485 h -55.671 l -5.466,5.934 v 33.34 l 5.466,5.231 h 55.671 c 39.93,0.311 72.552,-31.494 72.863,-71.424 0.188,-24.203 -11.745,-46.893 -31.793,-60.453"
         fill="#4285f4"
         id="path23594"
         style="fill:#ffffff;fill-opacity:1" />
      <path
         d="m 71.8704,205.7957 h 55.593 v -44.506 h -55.593 c -3.961,-0.001 -7.797,-0.852 -11.399,-2.498 l -7.887,2.42 -22.409,22.253 -1.952,7.574 c 12.567,9.489 27.9,14.825 43.647,14.757"
         fill="#34a853"
         id="path23596"
         style="fill:#ffffff;fill-opacity:1" />
      <path
         d="m 71.8704,61.4255 c -39.931,0.238 -72.107,32.802 -71.869,72.732 0.133,22.298 10.547,43.288 28.222,56.881 l 32.248,-32.247 c -13.991,-6.321 -20.208,-22.786 -13.887,-36.776 6.32,-13.99 22.786,-20.207 36.775,-13.887 6.165,2.785 11.102,7.723 13.887,13.887 l 32.248,-32.247 c -13.721,-17.937 -35.041,-28.424 -57.624,-28.343"
         fill="#fbbc05"
         id="path23598"
         style="fill:#ffffff;fill-opacity:1" />
    </g>
  </g>
  <g
     inkscape:groupmode="layer"
     id="layer3"
     inkscape:label="Layer 3"
     transform="translate(127.65785,-11.134908)">
    <text
       font-family="sans-serif"
       font-size="24px"
       text-anchor="middle"
       id="text968-4"
       transform="matrix(0.47258001,0,0,0.45649022,-141.34764,-0.57444253)"
       style="font-size:12.6007px;font-family:sans-serif;text-anchor:middle"><textPath
         xlink:href="#MyPath2-3-1"
         startOffset="50%"
         id="textPath966-0"
         style="font-style:normal;font-variant:normal;font-weight:bold;font-stretch:normal;font-size:12.6007px;font-family:sans-serif;-inkscape-font-specification:'sans-serif, Bold';font-variant-ligatures:normal;font-variant-caps:normal;font-variant-numeric:normal;font-variant-east-asian:normal;fill:#20b2aa;fill-opacity:1">Google Cloud Certified</textPath></text>
  </g>
</svg>
